<svg id="Layer_1" data-name="Layer 1" xmlns="http://www.w3.org/2000/svg" viewBox="0 0 1500.09 333.41">
	<defs>
		<style>
			.cls-1{fill:aqua;}.cls-2{fill:#fff;}
		</style>
	</defs>
	<path class="cls-1" d="M-5.12,546.41H-31.35a41.18,41.18,0,0,1-41.14-41.14V303.47a40.72,40.72,0,0,1,23.13-36.91A40.71,40.71,0,0,1-6,271.28a11.9,11.9,0,0,1,2,16.72,11.91,11.91,0,0,1-16.72,2A16.88,16.88,0,0,0-39,288a16.86,16.86,0,0,0-9.7,15.48v201.8A17.35,17.35,0,0,0-31.35,522.6H-5.12a17,17,0,0,0,12.18-5.07,17,17,0,0,0,5-12.2l-1-251.12a41,41,0,0,1,65-33.46l87.37,62.84a17.15,17.15,0,0,0,20.2-.09l84.85-62.12a41,41,0,0,1,65.25,33.1,11.91,11.91,0,0,1-23.82,0,17.2,17.2,0,0,0-27.36-13.88L197.7,302.72a40.91,40.91,0,0,1-48.18.2L62.16,240.08a17.21,17.21,0,0,0-27.25,14l1,251.12a40.76,40.76,0,0,1-12,29.11A40.7,40.7,0,0,1-5.12,546.41Z" transform="translate(72.49 -213)" />
	<path class="cls-1" d="M377.21,545.09h-26.1a41.24,41.24,0,0,1-41.2-41.2v-148a11.91,11.91,0,1,1,23.82,0v148a17.4,17.4,0,0,0,17.38,17.38h26.1a17.41,17.41,0,0,0,17.39-17.38V299.6A17.39,17.39,0,0,0,367,285.54L197.62,408.72a41.18,41.18,0,0,1-48,.32l-.42-.32-48.86-37.93A11.91,11.91,0,0,1,114.92,352l48.62,37.74a17.36,17.36,0,0,0,20.07-.26L353,266.28a41.2,41.2,0,0,1,65.43,33.32V503.89A41.24,41.24,0,0,1,377.21,545.09Z" transform="translate(72.49 -213)" />
	<rect class="cls-1" x="80.85" y="336.85" width="49.7" height="50.79" transform="translate(-172.01 8.69) rotate(-51.86)" />
	<rect class="cls-1" x="86.43" y="326.48" width="8.64" height="24.98" transform="translate(-159.42 -11.97) rotate(-51.86)" />
	<rect class="cls-1" x="75.12" y="341.21" width="8.64" height="24.98" transform="translate(-175.33 -15.23) rotate(-51.86)" />
	<path class="cls-2" d="M514.15,404.78v-126h17.46v19.78c8.15-16,22.4-24.44,40.15-24.44,18.33,0,31.42,8.44,38.4,24.73,10.19-16.58,24.73-24.73,43.93-24.73,26.77,0,43.06,17.46,43.06,45.39v85.24H679.7V326.52c0-24.73-10.18-37.24-30.26-37.24-25,0-34.91,16.58-34.91,49.17v66.33H597.07V326.52c0-24.73-8.44-37.24-29.68-37.24-25.31,0-35.78,16.58-35.78,49.17v66.33Z" transform="translate(72.49 -213)" />
	<path class="cls-2" d="M748.63,342.23c.59,32.88,18,52.37,43.06,52.37,18.91,0,32.3-10.18,41.9-30.26l16,8.73c-12.8,25.6-30.84,37.24-57.9,37.24-37,0-62-27.64-62-67.21,0-41.89,25.61-69,61.39-69,34,0,57.61,24.44,57.61,63.72v4.36ZM788.78,291c-20.36,0-36.95,14.26-39,36.37h78.26C826.61,304.12,812.06,291,788.78,291Z" transform="translate(72.49 -213)" />
	<path class="cls-2" d="M862.38,293.64V278.81h23.28V227h17.16v51.79h25.31v14.83H902.82V404.78H885.66V293.64Z" transform="translate(72.49 -213)" />
	<path class="cls-2" d="M1043.92,381.8c-8.15,18.62-23.86,28.51-44.22,28.51-36.08,0-60.23-27.05-60.23-67.79S964.2,274.15,998,274.15c21.24,0,37.24,9.31,46,27.64v-23h17.46v126h-17.46ZM1001.44,394c25.32,0,42.77-19.2,42.77-54.11,0-31.43-16.87-49.76-42.47-49.76S959,309.65,959,343.1C959,376,974.39,394,1001.44,394Z" transform="translate(72.49 -213)" />
	<path class="cls-2" d="M1107.33,372.78c5.82,14.26,16,21.24,31.13,21.24s24.15-8.44,24.15-20.66c0-17.45-15.42-19.78-35.49-28.22-20.37-8.44-30.26-18.62-30.26-34.62,0-21.24,16.29-36.66,40.73-36.66,20.37,0,35.2,9,41.9,25.6l-16,9c-4.07-11.93-13.67-18.33-27-18.33-12.22,0-21,8.15-21,18.62,0,12.51,10.18,17.46,30,24.15,22.69,7.57,35.2,15.71,35.2,39.28,0,22.4-16.88,38.11-45.68,38.11-21.82,0-37.82-10.76-44.22-27.93Z" transform="translate(72.49 -213)" />
	<path class="cls-2" d="M562.73,519.64V467.16h-.25l-14.82,52.48h-5.53L527.4,467.16h-.25v52.48h-5.64V459.23h8.88l14.42,51h.34l14.25-51h9.22v60.41Z" transform="translate(72.49 -213)" />
	<path class="cls-2" d="M584.41,464.35a4.07,4.07,0,0,1-1.11,2.94,3.54,3.54,0,0,1-2.65,1.15,3.5,3.5,0,0,1-2.69-1.15,4.16,4.16,0,0,1-1.06-2.94,4.23,4.23,0,0,1,1.06-2.91,3.64,3.64,0,0,1,5.38,0A4.23,4.23,0,0,1,584.41,464.35Zm-6.57,55.29V477.32h5.63v42.32Z" transform="translate(72.49 -213)" />
	<path class="cls-2" d="M613.5,519.64v-7.59h-.17a14.78,14.78,0,0,1-3.41,6.4,8.75,8.75,0,0,1-6.74,2.56,9.82,9.82,0,0,1-5.72-1.71,13.83,13.83,0,0,1-4.18-4.73,25.29,25.29,0,0,1-2.6-7.17,42.83,42.83,0,0,1-.9-9.09,45.19,45.19,0,0,1,.85-9.05,24.45,24.45,0,0,1,2.52-7,13.14,13.14,0,0,1,4.18-4.6,10.21,10.21,0,0,1,5.76-1.67,9.41,9.41,0,0,1,6.49,2.35,11.73,11.73,0,0,1,3.58,6.19h.17V455.13H619v64.51Zm0-21.16a41.67,41.67,0,0,0-.55-7,20.56,20.56,0,0,0-1.71-5.59,10.59,10.59,0,0,0-2.86-3.71,6.4,6.4,0,0,0-7.89,0,10.53,10.53,0,0,0-2.77,3.71,20.62,20.62,0,0,0-1.62,5.59,44,44,0,0,0-.52,7,42.43,42.43,0,0,0,.52,6.87,21.17,21.17,0,0,0,1.62,5.59,10.47,10.47,0,0,0,2.77,3.76,6.47,6.47,0,0,0,7.94,0,10.78,10.78,0,0,0,2.81-3.76,21.12,21.12,0,0,0,1.71-5.59A40.18,40.18,0,0,0,613.5,498.48Z" transform="translate(72.49 -213)" />
	<path class="cls-2" d="M649,519.64v-7.59h-.17a14.78,14.78,0,0,1-3.41,6.4,8.75,8.75,0,0,1-6.74,2.56A9.82,9.82,0,0,1,633,519.3a13.83,13.83,0,0,1-4.18-4.73,25.29,25.29,0,0,1-2.6-7.17,42.83,42.83,0,0,1-.9-9.09,44.47,44.47,0,0,1,.85-9.05,24.45,24.45,0,0,1,2.52-7,13.14,13.14,0,0,1,4.18-4.6,10.21,10.21,0,0,1,5.76-1.67,9.42,9.42,0,0,1,6.49,2.35,11.73,11.73,0,0,1,3.58,6.19h.17V455.13h5.64v64.51Zm0-21.16a41.67,41.67,0,0,0-.55-7,20.56,20.56,0,0,0-1.71-5.59,10.59,10.59,0,0,0-2.86-3.71,6.4,6.4,0,0,0-7.89,0,10.53,10.53,0,0,0-2.77,3.71,20.62,20.62,0,0,0-1.62,5.59,44,44,0,0,0-.52,7,42.43,42.43,0,0,0,.52,6.87,21.17,21.17,0,0,0,1.62,5.59A10.47,10.47,0,0,0,636,514.7a6.47,6.47,0,0,0,7.94,0,10.78,10.78,0,0,0,2.81-3.76,21.12,21.12,0,0,0,1.71-5.59A40.18,40.18,0,0,0,649,498.48Z" transform="translate(72.49 -213)" />
	<path class="cls-2" d="M663.34,519.64V455.13H669v64.51Z" transform="translate(72.49 -213)" />
	<path class="cls-2" d="M680.92,499.68a32.27,32.27,0,0,0,.6,6.44,18.66,18.66,0,0,0,1.76,5.12,9.51,9.51,0,0,0,2.91,3.41,7,7,0,0,0,4.16,1.24,6.77,6.77,0,0,0,5-1.88,12.89,12.89,0,0,0,2.91-4.52l4.27,2.47a16.49,16.49,0,0,1-4.57,6.45,11.45,11.45,0,0,1-7.72,2.6,12.46,12.46,0,0,1-11-6q-3.93-6-3.92-16.47a38.44,38.44,0,0,1,1-9.13,23.41,23.41,0,0,1,2.93-7.17,14.42,14.42,0,0,1,4.68-4.65,12.71,12.71,0,0,1,12.51-.05,12.4,12.4,0,0,1,4.21,4.44,21.08,21.08,0,0,1,2.34,6.57,42.65,42.65,0,0,1,.72,8v3.08Zm17.15-4.7a22.86,22.86,0,0,0-2-10.28,6.51,6.51,0,0,0-6.18-3.88,6,6,0,0,0-4.16,1.49A12,12,0,0,0,683,486a18.15,18.15,0,0,0-1.54,4.65A23.21,23.21,0,0,0,681,495Z" transform="translate(72.49 -213)" />
	<path class="cls-2" d="M721.54,519.64V459.23h24.32v5.29H727.34v21.16h17.32v5.12H727.34v23.47h19.37v5.37Z" transform="translate(72.49 -213)" />
	<path class="cls-2" d="M770.35,519.64c-.06-.45-.1-1-.13-1.7s-.05-1.41-.08-2.18,0-1.51,0-2.22v-1.83h-.17q-2.13,9-10.24,9a9.88,9.88,0,0,1-3.58-.68,8.48,8.48,0,0,1-3.24-2.22,11.89,11.89,0,0,1-2.39-3.88,15.21,15.21,0,0,1-.94-5.68,14.81,14.81,0,0,1,1.62-7.42,12.74,12.74,0,0,1,4.1-4.44,14.75,14.75,0,0,1,5.42-2.17,30.14,30.14,0,0,1,5.58-.56h3.33v-2.22c0-3.69-.68-6.4-2.05-8.1a6.7,6.7,0,0,0-5.54-2.56,8.16,8.16,0,0,0-4.44,1.28,12.56,12.56,0,0,0-3.5,3.24l-3-3.5a13.11,13.11,0,0,1,5.12-4.35A14.27,14.27,0,0,1,762.5,476q6.66,0,9.47,4.35c1.88,2.91,2.82,7.14,2.82,12.72V510.6c0,.57,0,1.28,0,2.13s.06,1.72.09,2.6.07,1.71.12,2.48.12,1.38.17,1.83Zm-.68-21.5h-3.42a22.64,22.64,0,0,0-4.09.38,9.59,9.59,0,0,0-3.63,1.45,8.32,8.32,0,0,0-2.6,2.95,10.13,10.13,0,0,0-1,4.86c0,3,.66,5.1,2,6.4a5.95,5.95,0,0,0,8.32.52,10.27,10.27,0,0,0,2.64-3.67,19.3,19.3,0,0,0,1.41-4.87,31.49,31.49,0,0,0,.43-5.12Z" transform="translate(72.49 -213)" />
	<path class="cls-2" d="M798.94,484.66a9.14,9.14,0,0,0-2.86-3,7.52,7.52,0,0,0-4.23-1.16,5.64,5.64,0,0,0-4.47,2,7.7,7.7,0,0,0-1.76,5.25q0,3.4,1.71,4.95a16.32,16.32,0,0,0,5.12,2.81,26.89,26.89,0,0,1,3.42,1.67,12.65,12.65,0,0,1,3,2.43,11.72,11.72,0,0,1,3,8.28q0,6.23-3.37,9.68a11.64,11.64,0,0,1-8.74,3.46,13.25,13.25,0,0,1-6.57-1.66,14.57,14.57,0,0,1-5-4.48l3.41-3.67a13.16,13.16,0,0,0,3.46,3.62,8,8,0,0,0,4.73,1.41,6,6,0,0,0,4.82-2.18,8.6,8.6,0,0,0,1.84-5.76,8,8,0,0,0-.68-3.45,7.18,7.18,0,0,0-1.8-2.35,12.29,12.29,0,0,0-2.51-1.62c-.94-.45-1.92-.88-2.95-1.28a20.47,20.47,0,0,1-3.11-1.45,10.43,10.43,0,0,1-4.61-5.5,13.29,13.29,0,0,1-.73-4.66,12.82,12.82,0,0,1,.9-4.86,11.08,11.08,0,0,1,2.52-3.8,12.1,12.1,0,0,1,3.71-2.47,11.38,11.38,0,0,1,4.56-.9,12.8,12.8,0,0,1,6.19,1.41,12.58,12.58,0,0,1,4.23,3.63Z" transform="translate(72.49 -213)" />
	<path class="cls-2" d="M819,520.41a11.44,11.44,0,0,1-2.81.34q-4.44,0-6.28-3.07a15.93,15.93,0,0,1-1.83-8.19V481.93h-5.55v-4.61H808V465.63h5.55v11.69H821v4.61h-7.51v26.54q0,3.84,1.11,5.58A3.68,3.68,0,0,0,818,515.8a6.8,6.8,0,0,0,1.62-.21,9.53,9.53,0,0,0,1.45-.47l.26,4.52A13.54,13.54,0,0,1,819,520.41Z" transform="translate(72.49 -213)" />
	<path class="cls-2" d="M845,464.35v55.29h-5.89V464.35h-11.6v-5.12h29.18v5.12Z" transform="translate(72.49 -213)" />
	<path class="cls-2" d="M859,499.68a31.55,31.55,0,0,0,.6,6.44,19,19,0,0,0,1.75,5.12,9.54,9.54,0,0,0,2.92,3.41,7,7,0,0,0,4.16,1.24,6.74,6.74,0,0,0,5-1.88,12.91,12.91,0,0,0,2.92-4.52l4.27,2.47a16.49,16.49,0,0,1-4.57,6.45,11.45,11.45,0,0,1-7.72,2.6,12.44,12.44,0,0,1-11-6q-3.93-6-3.93-16.47a38.44,38.44,0,0,1,1-9.13,23.42,23.42,0,0,1,2.94-7.17,14.32,14.32,0,0,1,4.68-4.65,12.71,12.71,0,0,1,12.51-.05,12.4,12.4,0,0,1,4.21,4.44,21.6,21.6,0,0,1,2.34,6.57,42.65,42.65,0,0,1,.72,8v3.08Zm17.15-4.7a22.72,22.72,0,0,0-2-10.28,6.49,6.49,0,0,0-6.17-3.88,6,6,0,0,0-4.16,1.49,12,12,0,0,0-2.74,3.67,18.17,18.17,0,0,0-1.55,4.65,24,24,0,0,0-.47,4.35Z" transform="translate(72.49 -213)" />
	<path class="cls-2" d="M899.81,521a11.9,11.9,0,0,1-6.32-1.66,14,14,0,0,1-4.57-4.61,23.07,23.07,0,0,1-2.77-7.09,45.2,45.2,0,0,1,0-18.34,22.9,22.9,0,0,1,2.82-7.13,13.64,13.64,0,0,1,4.61-4.61,12.12,12.12,0,0,1,6.31-1.62,11.79,11.79,0,0,1,9.22,4l-3,4.1a7.65,7.65,0,0,0-2.56-2.31,7.34,7.34,0,0,0-3.58-.85,6.19,6.19,0,0,0-4,1.32,10.21,10.21,0,0,0-2.78,3.67,22.16,22.16,0,0,0-1.66,5.55,41.31,41.31,0,0,0-.55,7,39.91,39.91,0,0,0,.55,6.91,21.18,21.18,0,0,0,1.66,5.46,9.38,9.38,0,0,0,2.86,3.59,6.86,6.86,0,0,0,4.14,1.28,7.36,7.36,0,0,0,3.71-.9,7.93,7.93,0,0,0,2.69-2.51l2.56,4.35A11.26,11.26,0,0,1,899.81,521Z" transform="translate(72.49 -213)" />
	<path class="cls-2" d="M933.51,519.64v-27.3a38.14,38.14,0,0,0-.21-4,13.08,13.08,0,0,0-.9-3.67,6.65,6.65,0,0,0-2-2.73,5.36,5.36,0,0,0-3.46-1.07,6.53,6.53,0,0,0-3.79,1.15,10,10,0,0,0-2.86,3.16,16.77,16.77,0,0,0-1.84,4.61,23,23,0,0,0-.64,5.42v24.4h-5.63V455.13h5.63v30.21H918a14.38,14.38,0,0,1,3.83-6.74,9.34,9.34,0,0,1,6.8-2.65,8.8,8.8,0,0,1,8.67,5.25,17.82,17.82,0,0,1,1.48,5.29,44.44,44.44,0,0,1,.39,5.85v27.3Z" transform="translate(72.49 -213)" />
	<path class="cls-2" d="M969.44,519.64v-27.3a38.14,38.14,0,0,0-.21-4,12.76,12.76,0,0,0-.94-3.67,7.14,7.14,0,0,0-2-2.73,5.34,5.34,0,0,0-3.46-1.07,6.55,6.55,0,0,0-3.79,1.15,9.65,9.65,0,0,0-2.82,3.16,17.37,17.37,0,0,0-1.79,4.61,22.47,22.47,0,0,0-.64,5.42v24.4h-5.63V488c0-.9,0-1.89-.05-2.94S948,483,948,482s-.06-1.91-.09-2.73-.07-1.47-.13-1.92h5.47c.11,1.08.19,2.39.25,3.92s.09,3,.09,4.35h.17a15.26,15.26,0,0,1,3.92-6.95,9.36,9.36,0,0,1,6.83-2.69A9.55,9.55,0,0,1,970,477.4a9.44,9.44,0,0,1,3.19,3.8,17.82,17.82,0,0,1,1.5,5.29,46.2,46.2,0,0,1,.38,5.85v27.3Z" transform="translate(72.49 -213)" />
	<path class="cls-2" d="M1010.57,498.57a37.85,37.85,0,0,1-1,9.13,24.25,24.25,0,0,1-2.9,7.08,13.74,13.74,0,0,1-4.65,4.61,12.07,12.07,0,0,1-6.19,1.62,11.82,11.82,0,0,1-6.15-1.62,14.1,14.1,0,0,1-4.65-4.61,23.49,23.49,0,0,1-2.94-7.08,37.83,37.83,0,0,1-1-9.13,40,40,0,0,1,1-9.22,23.36,23.36,0,0,1,2.85-7.17,13.68,13.68,0,0,1,4.66-4.61,12.79,12.79,0,0,1,12.46,0,13.74,13.74,0,0,1,4.65,4.61,24.16,24.16,0,0,1,2.9,7.17A38.91,38.91,0,0,1,1010.57,498.57Zm-5.8-.13a41.3,41.3,0,0,0-.56-7,21.51,21.51,0,0,0-1.66-5.58,10.49,10.49,0,0,0-2.77-3.7,6.07,6.07,0,0,0-4-1.36,6.2,6.2,0,0,0-4,1.36,9.84,9.84,0,0,0-2.78,3.7,22.79,22.79,0,0,0-1.62,5.58,41.34,41.34,0,0,0-.55,7,39.76,39.76,0,0,0,.55,6.89,23.68,23.68,0,0,0,1.62,5.54,9.39,9.39,0,0,0,2.78,3.7,6.75,6.75,0,0,0,8,0,9.37,9.37,0,0,0,2.77-3.7,23.68,23.68,0,0,0,1.62-5.54A39.72,39.72,0,0,0,1004.77,498.44Z" transform="translate(72.49 -213)" />
	<path class="cls-2" d="M1016.89,519.64V455.13h5.63v64.51Z" transform="translate(72.49 -213)" />
	<path class="cls-2" d="M1058.36,498.57a37.33,37.33,0,0,1-1,9.13,24.25,24.25,0,0,1-2.9,7.08,13.57,13.57,0,0,1-4.65,4.61,12,12,0,0,1-6.19,1.62,11.81,11.81,0,0,1-6.14-1.62,14.1,14.1,0,0,1-4.65-4.61,23.49,23.49,0,0,1-2.94-7.08,37.33,37.33,0,0,1-1-9.13,40.62,40.62,0,0,1,1-9.22,23.62,23.62,0,0,1,2.86-7.17,13.57,13.57,0,0,1,4.65-4.61,12.2,12.2,0,0,1,6.27-1.62,12,12,0,0,1,6.19,1.62,13.57,13.57,0,0,1,4.65,4.61,24.16,24.16,0,0,1,2.9,7.17A38.38,38.38,0,0,1,1058.36,498.57Zm-5.81-.13a41.34,41.34,0,0,0-.55-7,21.51,21.51,0,0,0-1.66-5.58,10.51,10.51,0,0,0-2.78-3.7,6.05,6.05,0,0,0-4-1.36,6.24,6.24,0,0,0-4,1.36,9.93,9.93,0,0,0-2.77,3.7,22.79,22.79,0,0,0-1.62,5.58,41.3,41.3,0,0,0-.56,7,39.72,39.72,0,0,0,.56,6.89,23.68,23.68,0,0,0,1.62,5.54,9.47,9.47,0,0,0,2.77,3.7,6.77,6.77,0,0,0,8,0,9.47,9.47,0,0,0,2.77-3.7,23.68,23.68,0,0,0,1.62-5.54A39.76,39.76,0,0,0,1052.55,498.44Z" transform="translate(72.49 -213)" />
	<path class="cls-2" d="M1091.3,519.05a45.41,45.41,0,0,1-.73,8.36,19.76,19.76,0,0,1-2.43,6.66,12.33,12.33,0,0,1-4.61,4.43,14.7,14.7,0,0,1-7.25,1.62,16.44,16.44,0,0,1-7.81-1.91,16.09,16.09,0,0,1-5.85-5.17l3.67-3.92a13.79,13.79,0,0,0,4.31,4.26,10.87,10.87,0,0,0,5.85,1.62,8.32,8.32,0,0,0,4.65-1.19,8,8,0,0,0,2.86-3.33,17.75,17.75,0,0,0,1.45-5,44.86,44.86,0,0,0,.43-6.4v-7h-.17a14.9,14.9,0,0,1-3.42,6.4,8.75,8.75,0,0,1-6.74,2.56,9.82,9.82,0,0,1-5.72-1.71,13.83,13.83,0,0,1-4.18-4.73,25.59,25.59,0,0,1-2.6-7.17,42.83,42.83,0,0,1-.9-9.09,44.44,44.44,0,0,1,.86-9.05,24.16,24.16,0,0,1,2.51-7,13.16,13.16,0,0,1,4.19-4.6,10.16,10.16,0,0,1,5.75-1.67,9.54,9.54,0,0,1,6.53,2.35,11.6,11.6,0,0,1,3.63,6.19h.26v-7.17h5.46Zm-5.46-20.57a41,41,0,0,0-.56-6.91,21.08,21.08,0,0,0-1.71-5.63,10.53,10.53,0,0,0-2.85-3.76,6.12,6.12,0,0,0-3.93-1.36,6.05,6.05,0,0,0-4,1.36,10.53,10.53,0,0,0-2.77,3.71,20.62,20.62,0,0,0-1.62,5.59,45.24,45.24,0,0,0-.51,7,43.63,43.63,0,0,0,.51,6.87,21.17,21.17,0,0,0,1.62,5.59,10.47,10.47,0,0,0,2.77,3.76,6.47,6.47,0,0,0,7.94,0,10.8,10.8,0,0,0,2.81-3.72,20.4,20.4,0,0,0,1.71-5.54A40.8,40.8,0,0,0,1085.84,498.48Z" transform="translate(72.49 -213)" />
	<path class="cls-2" d="M1110.84,528.69a33.86,33.86,0,0,1-1.58,4.86,12.43,12.43,0,0,1-2.18,3.55,9.32,9.32,0,0,1-2.94,2.23,9.13,9.13,0,0,1-4,.79,14.82,14.82,0,0,1-2.39-.2,15.4,15.4,0,0,1-2-.47l.77-5a14.45,14.45,0,0,0,1.45.34,8.27,8.27,0,0,0,1.71.17,4.29,4.29,0,0,0,3.71-1.7,14,14,0,0,0,2-4.7l1.88-7.33-12.29-43.87h6l9.13,35.76h.17l8.1-35.76h5.72Z" transform="translate(72.49 -213)" />
	<path class="cls-2" d="M1169.38,519.64l-5.46-8.27a23.52,23.52,0,0,1-2.05,3.75,14,14,0,0,1-2.82,3.12,12.69,12.69,0,0,1-3.71,2.09,13.68,13.68,0,0,1-4.73.77,12.77,12.77,0,0,1-10.2-4.53q-3.89-4.52-3.88-12.71a19.74,19.74,0,0,1,.81-5.89,20.13,20.13,0,0,1,2.17-4.82,19.72,19.72,0,0,1,3.24-3.93,31,31,0,0,1,4.1-3.2,32.19,32.19,0,0,1-3.93-7.55,21.93,21.93,0,0,1-1-6.7q0-6.57,3.41-10.37a11.91,11.91,0,0,1,13.36-2.86,10.33,10.33,0,0,1,3.58,2.65,12.47,12.47,0,0,1,2.35,4.14,16,16,0,0,1,.85,5.33,14.74,14.74,0,0,1-.93,5.38,17.39,17.39,0,0,1-2.52,4.39,20.6,20.6,0,0,1-3.71,3.63q-2.14,1.62-4.44,3.16l9.64,14.42,5.29-14.42h5.8L1166.82,506l9.39,13.65Zm-20-29.69a28.19,28.19,0,0,0-2.82,2.26,13,13,0,0,0-2.38,2.9,16.3,16.3,0,0,0-1.67,3.71,15.33,15.33,0,0,0-.64,4.61q0,5.9,2.6,9.22a8.13,8.13,0,0,0,6.7,3.32,7.11,7.11,0,0,0,3.29-.76,10.93,10.93,0,0,0,2.73-2,12.84,12.84,0,0,0,2.13-2.86,21.52,21.52,0,0,0,1.5-3.33ZM1160,471.09a11.4,11.4,0,0,0-1.58-6.45,5.08,5.08,0,0,0-4.48-2.34,5.57,5.57,0,0,0-4.73,2.6,11.33,11.33,0,0,0-1.84,6.7,17.64,17.64,0,0,0,.94,6,29.65,29.65,0,0,0,3.16,6.06,26.36,26.36,0,0,0,6.06-5.25A10.93,10.93,0,0,0,1160,471.09Z" transform="translate(72.49 -213)" />
	<path class="cls-2" d="M1217.59,504.2a19.68,19.68,0,0,1-1.19,7.12,15.65,15.65,0,0,1-3.29,5.3,14.19,14.19,0,0,1-4.9,3.32,15.61,15.61,0,0,1-6,1.16,18.54,18.54,0,0,1-8.49-2,17.35,17.35,0,0,1-6.27-5.2l3.67-4.18a13.61,13.61,0,0,0,4.95,4.35,13.16,13.16,0,0,0,6.06,1.53,9.1,9.1,0,0,0,6.87-2.9q2.77-2.89,2.77-8.28a11.25,11.25,0,0,0-.85-4.52,12.1,12.1,0,0,0-2.31-3.5,18.16,18.16,0,0,0-3.28-2.73,44,44,0,0,0-3.88-2.22,36,36,0,0,1-4.7-2.69,18.62,18.62,0,0,1-3.88-3.45,15.81,15.81,0,0,1-2.69-4.65,17.61,17.61,0,0,1-1-6.27,19,19,0,0,1,1.28-7.3,15,15,0,0,1,3.45-5.21,14.26,14.26,0,0,1,4.91-3.11,16.22,16.22,0,0,1,5.72-1,18.53,18.53,0,0,1,7.38,1.4,13.32,13.32,0,0,1,5.5,4.4l-3.67,4.18a9.94,9.94,0,0,0-4-3.54,11.82,11.82,0,0,0-5-1.07,10.11,10.11,0,0,0-3.54.64,8.54,8.54,0,0,0-3.12,2,10.21,10.21,0,0,0-2.22,3.5,13.48,13.48,0,0,0-.85,5,11.71,11.71,0,0,0,.77,4.44,11.23,11.23,0,0,0,2.09,3.33,15.08,15.08,0,0,0,3.07,2.56,40.22,40.22,0,0,0,3.63,2,46.56,46.56,0,0,1,4.73,2.74,21.69,21.69,0,0,1,4.23,3.58,15.57,15.57,0,0,1,3,4.78A16.91,16.91,0,0,1,1217.59,504.2Z" transform="translate(72.49 -213)" />
	<path class="cls-2" d="M1250.79,498.57a37.85,37.85,0,0,1-1,9.13,24.53,24.53,0,0,1-2.91,7.08,13.57,13.57,0,0,1-4.65,4.61A12,12,0,0,1,1236,521a11.82,11.82,0,0,1-6.15-1.62,14.1,14.1,0,0,1-4.65-4.61,23.49,23.49,0,0,1-2.94-7.08,37.33,37.33,0,0,1-1-9.13,40.62,40.62,0,0,1,1-9.22,23.62,23.62,0,0,1,2.86-7.17,13.57,13.57,0,0,1,4.65-4.61A12.22,12.22,0,0,1,1236,476a12,12,0,0,1,6.18,1.62,13.57,13.57,0,0,1,4.65,4.61,24.44,24.44,0,0,1,2.91,7.17A38.91,38.91,0,0,1,1250.79,498.57Zm-5.8-.13a41.3,41.3,0,0,0-.56-7,21.51,21.51,0,0,0-1.66-5.58,10.51,10.51,0,0,0-2.78-3.7,6,6,0,0,0-4-1.36,6.2,6.2,0,0,0-4,1.36,9.84,9.84,0,0,0-2.78,3.7,22.79,22.79,0,0,0-1.62,5.58,41.34,41.34,0,0,0-.55,7,39.76,39.76,0,0,0,.55,6.89,23.68,23.68,0,0,0,1.62,5.54,9.39,9.39,0,0,0,2.78,3.7,6.75,6.75,0,0,0,8,0,9.47,9.47,0,0,0,2.77-3.7,23.68,23.68,0,0,0,1.62-5.54A39.72,39.72,0,0,0,1245,498.44Z" transform="translate(72.49 -213)" />
	<path class="cls-2" d="M1257.1,519.64V455.13h5.64v64.51Z" transform="translate(72.49 -213)" />
	<path class="cls-2" d="M1276.9,477.32v27.3a38,38,0,0,0,.21,4,12.44,12.44,0,0,0,.94,3.67,7.26,7.26,0,0,0,2,2.73,5.25,5.25,0,0,0,3.5,1.07,6.48,6.48,0,0,0,3.79-1.15,9.55,9.55,0,0,0,2.82-3.16,17.24,17.24,0,0,0,1.79-4.61,22.41,22.41,0,0,0,.64-5.42v-24.4h5.63V509c0,.91,0,1.89,0,2.94s0,2.08.08,3.07.06,1.92.09,2.78a18.32,18.32,0,0,0,.13,1.87h-5.47c-.11-1.08-.2-2.39-.25-3.92s-.09-3-.09-4.35h-.17a15.35,15.35,0,0,1-3.92,7,9.53,9.53,0,0,1-15.53-2.56,17.65,17.65,0,0,1-1.5-5.25,45.76,45.76,0,0,1-.38-5.89v-27.3Z" transform="translate(72.49 -213)" />
	<path class="cls-2" d="M1318.88,520.41a11.38,11.38,0,0,1-2.81.34q-4.44,0-6.27-3.07a15.82,15.82,0,0,1-1.84-8.19V481.93h-5.54v-4.61h5.46V465.63h5.54v11.69h7.51v4.61h-7.51v26.54q0,3.84,1.11,5.58a3.68,3.68,0,0,0,3.33,1.75,6.8,6.8,0,0,0,1.62-.21,9.53,9.53,0,0,0,1.45-.47l.26,4.52A13.54,13.54,0,0,1,1318.88,520.41Z" transform="translate(72.49 -213)" />
	<path class="cls-2" d="M1331.09,464.35a4.07,4.07,0,0,1-1.11,2.94,3.54,3.54,0,0,1-2.65,1.15,3.48,3.48,0,0,1-2.68-1.15,4.13,4.13,0,0,1-1.07-2.94,4.19,4.19,0,0,1,1.07-2.91,3.62,3.62,0,0,1,5.37,0A4.23,4.23,0,0,1,1331.09,464.35Zm-6.57,55.29V477.32h5.63v42.32Z" transform="translate(72.49 -213)" />
	<path class="cls-2" d="M1366,498.57a37.85,37.85,0,0,1-1,9.13,24.53,24.53,0,0,1-2.91,7.08,13.57,13.57,0,0,1-4.65,4.61,12,12,0,0,1-6.18,1.62,11.82,11.82,0,0,1-6.15-1.62,14.1,14.1,0,0,1-4.65-4.61,23.49,23.49,0,0,1-2.94-7.08,37.33,37.33,0,0,1-1-9.13,40.62,40.62,0,0,1,1-9.22,23.62,23.62,0,0,1,2.86-7.17,13.57,13.57,0,0,1,4.65-4.61,12.22,12.22,0,0,1,6.28-1.62,12,12,0,0,1,6.18,1.62,13.57,13.57,0,0,1,4.65,4.61,24.44,24.44,0,0,1,2.91,7.17A38.91,38.91,0,0,1,1366,498.57Zm-5.8-.13a41.3,41.3,0,0,0-.56-7,21.51,21.51,0,0,0-1.66-5.58,10.51,10.51,0,0,0-2.78-3.7,6,6,0,0,0-4-1.36,6.2,6.2,0,0,0-4,1.36,9.84,9.84,0,0,0-2.78,3.7,22.79,22.79,0,0,0-1.62,5.58,41.34,41.34,0,0,0-.55,7,39.76,39.76,0,0,0,.55,6.89,23.68,23.68,0,0,0,1.62,5.54,9.39,9.39,0,0,0,2.78,3.7,6.75,6.75,0,0,0,8,0,9.37,9.37,0,0,0,2.77-3.7,23.68,23.68,0,0,0,1.62-5.54A39.72,39.72,0,0,0,1360.19,498.44Z" transform="translate(72.49 -213)" />
	<path class="cls-2" d="M1394,519.64v-27.3a38.14,38.14,0,0,0-.21-4,12.76,12.76,0,0,0-.94-3.67,7.14,7.14,0,0,0-2-2.73,5.36,5.36,0,0,0-3.46-1.07,6.53,6.53,0,0,0-3.79,1.15,9.65,9.65,0,0,0-2.82,3.16,17.37,17.37,0,0,0-1.79,4.61,22.47,22.47,0,0,0-.64,5.42v24.4h-5.64V488c0-.9,0-1.89,0-2.94s-.06-2.08-.08-3.07-.06-1.91-.09-2.73-.07-1.47-.13-1.92h5.46c.12,1.08.2,2.39.26,3.92s.09,3,.09,4.35h.17a15.26,15.26,0,0,1,3.92-6.95A9.36,9.36,0,0,1,1389,476a8.83,8.83,0,0,1,8.7,5.25,17.82,17.82,0,0,1,1.5,5.29,46.2,46.2,0,0,1,.38,5.85v27.3Z" transform="translate(72.49 -213)" />
	<path class="cls-2" d="M1424.27,484.66a9,9,0,0,0-2.86-3,7.47,7.47,0,0,0-4.22-1.16,5.68,5.68,0,0,0-4.48,2,7.69,7.69,0,0,0-1.75,5.25q0,3.4,1.71,4.95a16.1,16.1,0,0,0,5.12,2.81,27.45,27.45,0,0,1,3.41,1.67,12,12,0,0,1,5.21,5.89,12.41,12.41,0,0,1,.85,4.82q0,6.23-3.37,9.68a11.66,11.66,0,0,1-8.75,3.46,13.25,13.25,0,0,1-6.57-1.66,14.76,14.76,0,0,1-5-4.48l3.42-3.67a13,13,0,0,0,3.45,3.62,8,8,0,0,0,4.74,1.41,6,6,0,0,0,4.82-2.18,8.65,8.65,0,0,0,1.83-5.76,7.8,7.8,0,0,0-.68-3.45,7,7,0,0,0-1.79-2.35,12.36,12.36,0,0,0-2.52-1.62c-.94-.45-1.92-.88-2.94-1.28a21,21,0,0,1-3.12-1.45,10.65,10.65,0,0,1-2.69-2.22,10.87,10.87,0,0,1-1.92-3.28,13.31,13.31,0,0,1-.72-4.66,13,13,0,0,1,.89-4.86,11.08,11.08,0,0,1,2.52-3.8,12.22,12.22,0,0,1,3.71-2.47,11.47,11.47,0,0,1,4.57-.9,12.83,12.83,0,0,1,6.19,1.41,12.55,12.55,0,0,1,4.22,3.63Z" transform="translate(72.49 -213)" />
</svg>
